%FSLAX25Y25*%
%MOIN*%
G70*
G01*
G75*
G04 Layer_Color=32768*
%ADD10R,0.03937X0.07087*%
%ADD11R,0.03740X0.07480*%
%ADD12R,0.21654X0.27165*%
%ADD13R,0.07087X0.03937*%
%ADD14R,0.07087X0.04331*%
%ADD15R,0.06693X0.04331*%
%ADD16R,0.03937X0.05906*%
%ADD17R,0.08858X0.03937*%
%ADD18O,0.02150X0.05315*%
%ADD19O,0.05315X0.02150*%
%ADD20R,0.43307X0.35433*%
%ADD21O,0.05906X0.17716*%
%ADD22O,0.05906X0.17716*%
%ADD23R,0.05906X0.07087*%
%ADD24R,0.04331X0.06693*%
%ADD25C,0.01378*%
%ADD26C,0.02362*%
%ADD27C,0.04724*%
%ADD28C,0.03150*%
%ADD29C,0.01969*%
%ADD30C,0.01575*%
%ADD31C,0.01841*%
%ADD32C,0.03937*%
%ADD33C,0.03347*%
%ADD34C,0.03307*%
%ADD35R,0.03937X0.04055*%
%ADD36R,0.03937X1.04331*%
%ADD37R,0.33858X0.03543*%
%ADD38R,0.57818X0.04725*%
%ADD39R,0.50394X0.04906*%
%ADD40C,0.15748*%
%ADD41R,0.07874X0.07874*%
%ADD42C,0.07874*%
%ADD43C,0.06693*%
%ADD44R,0.06693X0.06693*%
%ADD45R,0.07087X0.08661*%
%ADD46R,0.08661X0.07087*%
%ADD47R,0.07874X0.07874*%
%ADD48R,0.07480X0.07480*%
%ADD49C,0.07480*%
%ADD50C,0.06299*%
%ADD51R,0.06299X0.06299*%
%ADD52R,0.06693X0.11811*%
%ADD53C,0.05906*%
%ADD54C,0.05000*%
%ADD55C,0.00984*%
%ADD56C,0.01181*%
%ADD57C,0.00787*%
%ADD58C,0.00098*%
%ADD59C,0.01000*%
%ADD60C,0.00512*%
%ADD61C,0.00098*%
%ADD62C,0.00500*%
%ADD63C,0.00800*%
%ADD64R,0.11024X0.03150*%
%ADD65R,0.04740X0.07890*%
%ADD66R,0.04543X0.08283*%
%ADD67R,0.22457X0.27969*%
%ADD68R,0.07890X0.04740*%
%ADD69R,0.07890X0.05134*%
%ADD70R,0.07496X0.05134*%
%ADD71R,0.04740X0.06709*%
%ADD72R,0.09661X0.04740*%
%ADD73O,0.03331X0.06496*%
%ADD74O,0.06496X0.03331*%
%ADD75R,0.44110X0.36236*%
%ADD76O,0.06709X0.18520*%
%ADD77O,0.06709X0.18520*%
%ADD78R,0.06709X0.07890*%
%ADD79R,0.05134X0.07496*%
%ADD80C,0.16551*%
%ADD81R,0.08677X0.08677*%
%ADD82C,0.08677*%
%ADD83C,0.07496*%
%ADD84R,0.07496X0.07496*%
%ADD85R,0.07890X0.09465*%
%ADD86R,0.09465X0.07890*%
%ADD87R,0.08677X0.08677*%
%ADD88R,0.08283X0.08283*%
%ADD89C,0.08283*%
%ADD90C,0.07102*%
%ADD91R,0.07102X0.07102*%
%ADD92R,0.07496X0.12614*%
%ADD93C,0.06709*%
%ADD94C,0.05803*%
%ADD95C,0.00394*%
%ADD96C,0.00200*%
%ADD97C,0.00197*%
D59*
X375689Y288976D02*
Y386894D01*
X446358D01*
Y288976D02*
Y386894D01*
X375689Y288976D02*
X446358D01*
D95*
X314961Y51181D02*
Y55118D01*
X312992Y53150D02*
X316929D01*
X389370Y122047D02*
X397244D01*
X389370Y106299D02*
X397244D01*
Y122047D01*
X389370Y106299D02*
Y122047D01*
X393307Y112205D02*
Y116142D01*
X391339Y114173D02*
X395276D01*
X337008Y178347D02*
X340945D01*
X338977Y176378D02*
Y180315D01*
X335236Y170473D02*
Y186221D01*
X342717Y170473D02*
Y186221D01*
X335236Y170473D02*
X342717D01*
X335236Y186221D02*
X342717D01*
X348819Y178347D02*
X352756D01*
X350787Y176378D02*
Y180315D01*
X354527Y170473D02*
Y186221D01*
X347047Y170473D02*
Y186221D01*
X354527D01*
X347047Y170473D02*
X354527D01*
X370866Y122047D02*
X378740D01*
X370866Y106299D02*
X378740D01*
Y122047D01*
X370866Y106299D02*
Y122047D01*
X374803Y112205D02*
Y116142D01*
X372835Y114173D02*
X376772D01*
X411024Y338770D02*
Y340770D01*
X410024Y339770D02*
X412024D01*
X271654Y155512D02*
Y159449D01*
X269685Y157480D02*
X273622D01*
X252362Y176772D02*
X290945D01*
X252362Y138189D02*
X290945D01*
X252362D02*
Y176772D01*
X290945Y138189D02*
Y176772D01*
X451575Y68898D02*
Y72835D01*
X449606Y70866D02*
X453543D01*
X183858Y153543D02*
Y157480D01*
X181890Y155512D02*
X185827D01*
X175984Y159252D02*
X191732D01*
X175984Y151772D02*
X191732D01*
X175984D02*
Y159252D01*
X191732Y151772D02*
Y159252D01*
X224803Y301575D02*
X228740D01*
X226772Y299606D02*
Y303543D01*
D97*
X300787Y31299D02*
X329134D01*
X300787Y75000D02*
X329134D01*
X300787Y31299D02*
Y75000D01*
X329134Y31299D02*
Y75000D01*
X441929Y84252D02*
X457225D01*
X441929Y57480D02*
Y84252D01*
Y57480D02*
X457225D01*
Y84252D01*
M02*
