%FSLAX25Y25*%
%MOIN*%
G70*
G01*
G75*
G04 Layer_Color=16711935*
%ADD10R,0.03937X0.07087*%
%ADD11R,0.03740X0.07480*%
%ADD12R,0.21654X0.27165*%
%ADD13R,0.07087X0.03937*%
%ADD14R,0.07087X0.04331*%
%ADD15R,0.06693X0.04331*%
%ADD16R,0.03937X0.05906*%
%ADD17R,0.08858X0.03937*%
%ADD18O,0.02150X0.05315*%
%ADD19O,0.05315X0.02150*%
%ADD20R,0.43307X0.35433*%
%ADD21O,0.05906X0.17716*%
%ADD22O,0.05906X0.17716*%
%ADD23R,0.05906X0.07087*%
%ADD24R,0.04331X0.06693*%
%ADD25C,0.01378*%
%ADD26C,0.02362*%
%ADD27C,0.04724*%
%ADD28C,0.03150*%
%ADD29C,0.01969*%
%ADD30C,0.01575*%
%ADD31C,0.01841*%
%ADD32C,0.03937*%
%ADD33C,0.03347*%
%ADD34C,0.03307*%
%ADD35R,0.03937X0.04055*%
%ADD36R,0.03937X1.04331*%
%ADD37R,0.33858X0.03543*%
%ADD38R,0.57818X0.04725*%
%ADD39R,0.50394X0.04906*%
%ADD40C,0.15748*%
%ADD41R,0.07874X0.07874*%
%ADD42C,0.07874*%
%ADD43C,0.06693*%
%ADD44R,0.06693X0.06693*%
%ADD45R,0.07087X0.08661*%
%ADD46R,0.08661X0.07087*%
%ADD47R,0.07874X0.07874*%
%ADD48R,0.07480X0.07480*%
%ADD49C,0.07480*%
%ADD50C,0.06299*%
%ADD51R,0.06299X0.06299*%
%ADD52R,0.06693X0.11811*%
%ADD53C,0.05906*%
%ADD54C,0.05000*%
%ADD55C,0.00984*%
%ADD56C,0.01181*%
%ADD57C,0.00787*%
%ADD58C,0.00098*%
%ADD59C,0.01000*%
%ADD60C,0.00512*%
%ADD61C,0.00098*%
%ADD62C,0.00500*%
%ADD63C,0.00800*%
%ADD64R,0.11024X0.03150*%
%ADD65R,0.04740X0.07890*%
%ADD66R,0.04543X0.08283*%
%ADD67R,0.22457X0.27969*%
%ADD68R,0.07890X0.04740*%
%ADD69R,0.07890X0.05134*%
%ADD70R,0.07496X0.05134*%
%ADD71R,0.04740X0.06709*%
%ADD72R,0.09661X0.04740*%
%ADD73O,0.03331X0.06496*%
%ADD74O,0.06496X0.03331*%
%ADD75R,0.44110X0.36236*%
%ADD76O,0.06709X0.18520*%
%ADD77O,0.06709X0.18520*%
%ADD78R,0.06709X0.07890*%
%ADD79R,0.05134X0.07496*%
%ADD80C,0.16551*%
%ADD81R,0.08677X0.08677*%
%ADD82C,0.08677*%
%ADD83C,0.07496*%
%ADD84R,0.07496X0.07496*%
%ADD85R,0.07890X0.09465*%
%ADD86R,0.09465X0.07890*%
%ADD87R,0.08677X0.08677*%
%ADD88R,0.08283X0.08283*%
%ADD89C,0.08283*%
%ADD90C,0.07102*%
%ADD91R,0.07102X0.07102*%
%ADD92R,0.07496X0.12614*%
%ADD93C,0.06709*%
%ADD94C,0.05803*%
%ADD95C,0.00394*%
%ADD96C,0.00200*%
D59*
X379199Y292645D02*
X442850D01*
Y386894D01*
X379199D02*
X442850D01*
X379199Y292645D02*
Y386894D01*
D95*
X283858Y147244D02*
G03*
X283858Y147244I-1969J0D01*
G01*
X456829Y78481D02*
G03*
X456829Y63251I-5254J-7615D01*
G01*
X301772Y43307D02*
X328150D01*
X301772Y67716D02*
X328150D01*
X301772Y43307D02*
Y67716D01*
X328150Y43307D02*
Y67716D01*
X389764Y120866D02*
X396851D01*
X389764Y107480D02*
X396851D01*
Y120866D01*
X389764Y107480D02*
Y120866D01*
X335433Y171654D02*
Y185039D01*
X342520Y171654D02*
Y185039D01*
X335433Y171654D02*
X342520D01*
X335433Y185039D02*
X342520D01*
X354331Y171654D02*
Y185039D01*
X347244Y171654D02*
Y185039D01*
X354331D01*
X347244Y171654D02*
X354331D01*
X371260Y120866D02*
X378347D01*
X371260Y107480D02*
X378347D01*
Y120866D01*
X371260Y107480D02*
Y120866D01*
X257874Y171260D02*
X285433D01*
X257874Y143701D02*
X285433D01*
X257874D02*
Y171260D01*
X285433Y143701D02*
Y171260D01*
X456829Y63251D02*
Y78481D01*
X177165Y159055D02*
X190551D01*
X177165Y151969D02*
X190551D01*
X177165D02*
Y159055D01*
X190551Y151969D02*
Y159055D01*
X215551Y280512D02*
Y322638D01*
X234055Y280512D02*
Y322638D01*
X215551Y280512D02*
X234055D01*
X215551Y322638D02*
X234055D01*
X220669Y280512D02*
Y322638D01*
D96*
X379028Y364674D02*
Y386937D01*
X443027D01*
Y364674D02*
Y386937D01*
X379028Y364674D02*
X443027D01*
X380694Y383770D02*
X380527Y383937D01*
X380194D01*
X380028Y383770D01*
Y383104D01*
X380194Y382937D01*
X380527D01*
X380694Y383104D01*
X381027Y383937D02*
Y383104D01*
X381194Y382937D01*
X381527D01*
X381694Y383104D01*
Y383937D01*
X382027D02*
X382693D01*
X382360D01*
Y382937D01*
X383526Y383937D02*
X383193D01*
X383027Y383770D01*
Y383104D01*
X383193Y382937D01*
X383526D01*
X383693Y383104D01*
Y383770D01*
X383526Y383937D01*
X384026D02*
Y383104D01*
X384193Y382937D01*
X384526D01*
X384693Y383104D01*
Y383937D01*
X385026D02*
X385692D01*
X385359D01*
Y382937D01*
X387025D02*
Y383937D01*
X387525D01*
X387692Y383770D01*
Y383437D01*
X387525Y383270D01*
X387025D01*
X388525Y383937D02*
X388192D01*
X388025Y383770D01*
Y383104D01*
X388192Y382937D01*
X388525D01*
X388691Y383104D01*
Y383770D01*
X388525Y383937D01*
X389025D02*
Y382937D01*
X389691D01*
X390024Y383937D02*
Y383770D01*
X390358Y383437D01*
X390691Y383770D01*
Y383937D01*
X390358Y383437D02*
Y382937D01*
X391690Y383770D02*
X391524Y383937D01*
X391191D01*
X391024Y383770D01*
Y383104D01*
X391191Y382937D01*
X391524D01*
X391690Y383104D01*
Y383437D01*
X391357D01*
X392524Y383937D02*
X392190D01*
X392024Y383770D01*
Y383104D01*
X392190Y382937D01*
X392524D01*
X392690Y383104D01*
Y383770D01*
X392524Y383937D01*
X393023Y382937D02*
Y383937D01*
X393690Y382937D01*
Y383937D01*
X380028Y384937D02*
Y385603D01*
X380361Y385937D01*
X380694Y385603D01*
Y384937D01*
Y385437D01*
X380028D01*
X381027Y384937D02*
Y385937D01*
X381694Y384937D01*
Y385937D01*
X382027D02*
X382693D01*
X382360D01*
Y384937D01*
X383693Y385937D02*
X383027D01*
Y384937D01*
X383693D01*
X383027Y385437D02*
X383360D01*
X384026Y384937D02*
Y385937D01*
X384693Y384937D01*
Y385937D01*
X385026Y384937D02*
Y385937D01*
X385692Y384937D01*
Y385937D01*
X386026Y384937D02*
Y385603D01*
X386359Y385937D01*
X386692Y385603D01*
Y384937D01*
Y385437D01*
X386026D01*
X388025Y384937D02*
Y385603D01*
X388358Y385937D01*
X388691Y385603D01*
Y384937D01*
Y385437D01*
X388025D01*
X389025Y384937D02*
Y385937D01*
X389525D01*
X389691Y385770D01*
Y385437D01*
X389525Y385270D01*
X389025D01*
X389358D02*
X389691Y384937D01*
X390691Y385937D02*
X390024D01*
Y384937D01*
X390691D01*
X390024Y385437D02*
X390358D01*
X391024Y384937D02*
Y385603D01*
X391357Y385937D01*
X391690Y385603D01*
Y384937D01*
Y385437D01*
X391024D01*
M02*
