%FSLAX25Y25*%
%MOIN*%
G70*
G01*
G75*
G04 Layer_Color=65535*
%ADD10R,0.03937X0.07087*%
%ADD11R,0.03740X0.07480*%
%ADD12R,0.21654X0.27165*%
%ADD13R,0.07087X0.03937*%
%ADD14R,0.07087X0.04331*%
%ADD15R,0.06693X0.04331*%
%ADD16R,0.03937X0.05906*%
%ADD17R,0.08858X0.03937*%
%ADD18O,0.02150X0.05315*%
%ADD19O,0.05315X0.02150*%
%ADD20R,0.43307X0.35433*%
%ADD21O,0.05906X0.17716*%
%ADD22O,0.05906X0.17716*%
%ADD23R,0.05906X0.07087*%
%ADD24R,0.04331X0.06693*%
%ADD25C,0.01378*%
%ADD26C,0.02362*%
%ADD27C,0.04724*%
%ADD28C,0.03150*%
%ADD29C,0.01969*%
%ADD30C,0.01575*%
%ADD31C,0.01841*%
%ADD32C,0.03937*%
%ADD33C,0.03347*%
%ADD34C,0.03307*%
%ADD35R,0.03937X0.04055*%
%ADD36R,0.03937X1.04331*%
%ADD37R,0.33858X0.03543*%
%ADD38R,0.57818X0.04725*%
%ADD39R,0.50394X0.04906*%
%ADD40C,0.15748*%
%ADD41R,0.07874X0.07874*%
%ADD42C,0.07874*%
%ADD43C,0.06693*%
%ADD44R,0.06693X0.06693*%
%ADD45R,0.07087X0.08661*%
%ADD46R,0.08661X0.07087*%
%ADD47R,0.07874X0.07874*%
%ADD48R,0.07480X0.07480*%
%ADD49C,0.07480*%
%ADD50C,0.06299*%
%ADD51R,0.06299X0.06299*%
%ADD52R,0.06693X0.11811*%
%ADD53C,0.05906*%
%ADD54C,0.05000*%
%ADD55C,0.00984*%
%ADD56C,0.01181*%
%ADD57C,0.00787*%
%ADD58C,0.00098*%
%ADD59C,0.01000*%
%ADD60C,0.00512*%
%ADD61C,0.00098*%
%ADD62C,0.00500*%
%ADD63C,0.00800*%
%ADD64R,0.11024X0.03150*%
G36*
X396457Y351437D02*
X391457Y353937D01*
X396457Y356437D01*
Y351437D01*
D02*
G37*
D26*
X279134Y150787D02*
G03*
X279134Y150787I-1181J0D01*
G01*
D55*
X302441Y36024D02*
G03*
X302441Y36024I-492J0D01*
G01*
X443012Y57874D02*
G03*
X443012Y57874I-492J0D01*
G01*
X231988Y283071D02*
G03*
X231988Y283071I-492J0D01*
G01*
X407087Y38189D02*
Y43305D01*
X409645D01*
X410498Y42453D01*
Y40747D01*
X409645Y39895D01*
X407087D01*
X412203Y38189D02*
X415614Y41600D01*
X420730Y42453D02*
X419878Y43305D01*
X418172D01*
X417319Y42453D01*
Y41600D01*
X418172Y40747D01*
X419878D01*
X420730Y39895D01*
Y39042D01*
X419878Y38189D01*
X418172D01*
X417319Y39042D01*
X427553Y38189D02*
X429258D01*
X428405D01*
Y43305D01*
X427553Y42453D01*
X435227Y38189D02*
X431816D01*
X435227Y41600D01*
Y42453D01*
X434374Y43305D01*
X432669D01*
X431816Y42453D01*
X436933Y43305D02*
Y39895D01*
X438638Y38189D01*
X440344Y39895D01*
Y43305D01*
X450576Y42453D02*
X449724Y43305D01*
X448018D01*
X447165Y42453D01*
Y39042D01*
X448018Y38189D01*
X449724D01*
X450576Y39042D01*
Y40747D01*
X448871D01*
X452282Y38189D02*
Y43305D01*
X455693Y38189D01*
Y43305D01*
X457399D02*
Y38189D01*
X459957D01*
X460809Y39042D01*
Y42453D01*
X459957Y43305D01*
X457399D01*
X467631Y38189D02*
X469337D01*
X468484D01*
Y43305D01*
X467631Y42453D01*
X475306Y38189D02*
X471895D01*
X475306Y41600D01*
Y42453D01*
X474453Y43305D01*
X472748D01*
X471895Y42453D01*
X477011Y43305D02*
Y39895D01*
X478717Y38189D01*
X480422Y39895D01*
Y43305D01*
D56*
X373819Y361811D02*
G03*
X373819Y361811I-591J0D01*
G01*
D57*
X445815Y79201D02*
G03*
X445253Y62575I3768J-8450D01*
G01*
X327559Y173228D02*
G03*
X327495Y182459I-4024J4588D01*
G01*
X317387D02*
G03*
X317323Y173228I3960J-4643D01*
G01*
X533465Y227559D02*
Y289370D01*
X301772Y43307D02*
Y45276D01*
X328150Y43307D02*
Y45276D01*
X301772Y43307D02*
X328150D01*
X396457Y112599D02*
Y115748D01*
X390158Y112599D02*
Y115748D01*
X336024Y176772D02*
Y179921D01*
X341929Y176772D02*
Y179921D01*
X353740Y176772D02*
Y179921D01*
X347835Y176772D02*
Y179921D01*
X377953Y112599D02*
Y115748D01*
X371654Y112599D02*
Y115748D01*
X468110Y80905D02*
X479134D01*
X468110D02*
Y101772D01*
X479134Y80905D02*
Y101772D01*
X260236Y168898D02*
X283071D01*
X260236Y146063D02*
X283071D01*
X260236D02*
Y168898D01*
X283071Y146063D02*
Y168898D01*
X457874Y63118D02*
Y78347D01*
X182283Y158465D02*
X185433D01*
X182283Y152559D02*
X185433D01*
X215551Y322638D02*
X234055D01*
X215551Y280512D02*
X234055D01*
Y322638D01*
X215551Y280512D02*
Y322638D01*
X217520Y280512D02*
Y322638D01*
X521260Y228465D02*
Y288464D01*
X521654Y227559D02*
X533465D01*
X521260Y289370D02*
X533465D01*
D58*
X378780Y212598D02*
G03*
X382716Y212598I1969J1969D01*
G01*
Y206693D02*
G03*
X378780Y206693I-1969J-1969D01*
G01*
X392717D02*
G03*
X388779Y206693I-1969J-1969D01*
G01*
Y212598D02*
G03*
X392717Y212598I1969J1969D01*
G01*
X402716Y206693D02*
G03*
X398780Y206693I-1969J-1969D01*
G01*
Y212598D02*
G03*
X402716Y212598I1969J1969D01*
G01*
X412716Y206693D02*
G03*
X408779Y206693I-1969J-1969D01*
G01*
Y212598D02*
G03*
X412716Y212598I1969J1969D01*
G01*
X448779D02*
G03*
X452716Y212598I1969J1969D01*
G01*
Y206693D02*
G03*
X448779Y206693I-1969J-1969D01*
G01*
X438779Y212598D02*
G03*
X442717Y212598I1969J1969D01*
G01*
Y206693D02*
G03*
X438779Y206693I-1969J-1969D01*
G01*
X428780Y212598D02*
G03*
X432717Y212598I1969J1969D01*
G01*
Y206693D02*
G03*
X428780Y206693I-1969J-1969D01*
G01*
X422717D02*
G03*
X418780Y206693I-1969J-1969D01*
G01*
Y212598D02*
G03*
X422717Y212598I1969J1969D01*
G01*
X382716Y198819D02*
Y214567D01*
X378780Y198819D02*
X382716D01*
X378780D02*
Y214567D01*
X388779D02*
X392717D01*
Y198819D02*
Y214567D01*
X388779Y198819D02*
X392717D01*
X388779D02*
Y214567D01*
X398780D02*
X402716D01*
Y198819D02*
Y214567D01*
X398780Y198819D02*
X402716D01*
X398780D02*
Y214567D01*
X408779D02*
X412716D01*
Y198819D02*
Y214567D01*
X408779Y198819D02*
X412716D01*
X408779D02*
Y214567D01*
X418780D02*
X422717D01*
Y198819D02*
Y214567D01*
X418780Y198819D02*
X422717D01*
X418780D02*
Y214567D01*
X428780D02*
X432717D01*
Y198819D02*
Y214567D01*
X428780Y198819D02*
X432717D01*
X428780D02*
Y214567D01*
X438779D02*
X442717D01*
Y198819D02*
Y214567D01*
X438779Y198819D02*
X442717D01*
X438779D02*
Y214567D01*
X448779D02*
X452716D01*
Y198819D02*
Y214567D01*
X448779Y198819D02*
X452716D01*
X448779D02*
Y214567D01*
D59*
X78391Y150798D02*
G03*
X114844Y140151I22168J8171D01*
G01*
X114451Y180715D02*
G03*
X77997Y170068I-14285J-18818D01*
G01*
X78391Y90956D02*
G03*
X114844Y80308I22168J8171D01*
G01*
X114451Y120873D02*
G03*
X77997Y110225I-14285J-18818D01*
G01*
X221260Y388976D02*
X273622D01*
Y376378D02*
Y388976D01*
X221260Y376378D02*
X273622D01*
X221260D02*
Y388976D01*
X294882Y387402D02*
X296063Y388583D01*
X326378D01*
Y366535D02*
Y388583D01*
X294882Y366535D02*
X326378D01*
X294882D02*
Y387402D01*
X379199Y357545D02*
Y386894D01*
Y292644D02*
Y295211D01*
X442850Y357544D02*
Y386894D01*
Y292644D02*
Y295212D01*
X379199Y386894D02*
X442850D01*
X379199Y292644D02*
X387670D01*
X434377D02*
X442850D01*
X442520Y34252D02*
X480709D01*
Y2756D02*
Y34252D01*
X442520Y2756D02*
X480709D01*
X422834D02*
X442520D01*
X422834Y34252D02*
X442520D01*
X422834Y2756D02*
Y34252D01*
X501181Y166535D02*
Y204725D01*
X532677D01*
Y166535D02*
Y204725D01*
X501181Y166535D02*
X532677D01*
X34252Y3543D02*
Y41732D01*
X2756Y3543D02*
X34252D01*
X2756D02*
Y41732D01*
Y61417D01*
X34252Y41732D02*
Y61417D01*
X2756D02*
X34252D01*
X2559Y68307D02*
Y87992D01*
X34055Y68307D02*
Y87992D01*
X2559D02*
Y107677D01*
X34055Y87992D02*
Y107677D01*
X2559Y68307D02*
X34055D01*
X2559Y107677D02*
Y127362D01*
X34055Y107677D02*
Y127362D01*
X2559D02*
Y147047D01*
X34055Y127362D02*
Y147047D01*
Y185236D01*
X2559D02*
X34055D01*
X2559Y147047D02*
Y185236D01*
X532677Y69685D02*
Y151575D01*
X490551Y69685D02*
X532677D01*
X490551D02*
Y151575D01*
X532677D01*
X526378Y337008D02*
Y379134D01*
X510630Y337008D02*
X526378D01*
X510630D02*
Y381890D01*
X526378D01*
Y379134D02*
Y381890D01*
X473228Y339764D02*
Y381890D01*
X488976D01*
Y337008D02*
Y381890D01*
X473228Y337008D02*
X488976D01*
X473228D02*
Y339764D01*
X1969Y251083D02*
Y342224D01*
X59941Y194488D02*
X147539D01*
X60335Y395669D02*
X148720D01*
X205118Y194488D02*
Y395669D01*
X1969Y194488D02*
X59941D01*
X167347D02*
X183342D01*
X147539D02*
X167347D01*
X183342D02*
X205118D01*
X148720Y395669D02*
X205118D01*
X1969Y213361D02*
Y225910D01*
Y194488D02*
Y213361D01*
Y225910D02*
Y251083D01*
Y342224D02*
Y385827D01*
X11811Y395669D02*
X60335D01*
X1969Y385827D02*
X11811Y395669D01*
X492126Y2756D02*
X530315D01*
X492126D02*
Y34252D01*
X530315D01*
Y2756D02*
Y34252D01*
X240158Y3150D02*
Y45276D01*
X224410Y3150D02*
X240158D01*
X224410D02*
Y48031D01*
X240158D01*
Y45276D02*
Y48031D01*
X493307Y37795D02*
Y41469D01*
X495144Y43305D01*
X496980Y41469D01*
Y37795D01*
Y40550D01*
X493307D01*
X498817Y43305D02*
Y38714D01*
X499735Y37795D01*
X501572D01*
X502491Y38714D01*
Y43305D01*
X504327D02*
X508001Y37795D01*
Y43305D02*
X504327Y37795D01*
X515347D02*
X517184D01*
X516265D01*
Y43305D01*
X515347Y42387D01*
X523612Y37795D02*
X519939D01*
X523612Y41469D01*
Y42387D01*
X522694Y43305D01*
X520857D01*
X519939Y42387D01*
X525449Y43305D02*
Y39632D01*
X527286Y37795D01*
X529122Y39632D01*
Y43305D01*
X264173Y75984D02*
Y81982D01*
X267172D01*
X268172Y80983D01*
Y78983D01*
X267172Y77984D01*
X264173D01*
X266173D02*
X268172Y75984D01*
X270171D02*
X272171D01*
X271171D01*
Y81982D01*
X270171Y80983D01*
X275170Y81982D02*
X279168D01*
Y80983D01*
X275170Y76984D01*
Y75984D01*
X284646D02*
Y81982D01*
X287645D01*
X288644Y80983D01*
Y78983D01*
X287645Y77984D01*
X284646D01*
X286645D02*
X288644Y75984D01*
X290644D02*
X292643D01*
X291643D01*
Y81982D01*
X290644Y80983D01*
X299641Y81982D02*
X297641Y80983D01*
X295642Y78983D01*
Y76984D01*
X296642Y75984D01*
X298641D01*
X299641Y76984D01*
Y77984D01*
X298641Y78983D01*
X295642D01*
X316993Y196417D02*
Y195417D01*
X318992Y193418D01*
X320992Y195417D01*
Y196417D01*
X318992Y193418D02*
Y190419D01*
X322991D02*
X324990D01*
X323991D01*
Y196417D01*
X322991Y195417D01*
X359055Y380408D02*
Y375409D01*
X360055Y374410D01*
X362054D01*
X363054Y375409D01*
Y380408D01*
X369052D02*
X365053D01*
Y377409D01*
X367053Y378408D01*
X368052D01*
X369052Y377409D01*
Y375409D01*
X368052Y374410D01*
X366053D01*
X365053Y375409D01*
X253093Y186017D02*
Y181019D01*
X254093Y180019D01*
X256092D01*
X257092Y181019D01*
Y186017D01*
X262090Y180019D02*
Y186017D01*
X259091Y183018D01*
X263090D01*
X75652Y304211D02*
X74653Y305211D01*
X72653D01*
X71653Y304211D01*
Y300212D01*
X72653Y299213D01*
X74653D01*
X75652Y300212D01*
Y302212D01*
X73653D01*
X77652Y299213D02*
Y305211D01*
X80651D01*
X81650Y304211D01*
Y302212D01*
X80651Y301212D01*
X77652D01*
X83650Y299213D02*
Y305211D01*
X86649D01*
X87648Y304211D01*
Y302212D01*
X86649Y301212D01*
X83650D01*
X85649D02*
X87648Y299213D01*
X93646Y304211D02*
X92647Y305211D01*
X90647D01*
X89648Y304211D01*
Y303211D01*
X90647Y302212D01*
X92647D01*
X93646Y301212D01*
Y300212D01*
X92647Y299213D01*
X90647D01*
X89648Y300212D01*
X101644Y299213D02*
Y305211D01*
X103643Y303211D01*
X105643Y305211D01*
Y299213D01*
X108642D02*
X110641D01*
X111641Y300212D01*
Y302212D01*
X110641Y303211D01*
X108642D01*
X107642Y302212D01*
Y300212D01*
X108642Y299213D01*
X117639Y305211D02*
Y299213D01*
X114640D01*
X113640Y300212D01*
Y302212D01*
X114640Y303211D01*
X117639D01*
X119638D02*
Y300212D01*
X120638Y299213D01*
X123637D01*
Y303211D01*
X125636Y299213D02*
X127635D01*
X126636D01*
Y305211D01*
X125636D01*
X133633Y299213D02*
X131634D01*
X130634Y300212D01*
Y302212D01*
X131634Y303211D01*
X133633D01*
X134633Y302212D01*
Y301212D01*
X130634D01*
X339764Y84738D02*
Y79740D01*
X340763Y78740D01*
X342763D01*
X343762Y79740D01*
Y84738D01*
X349761Y78740D02*
X345762D01*
X349761Y82739D01*
Y83738D01*
X348761Y84738D01*
X346761D01*
X345762Y83738D01*
X310236Y84738D02*
Y79740D01*
X311236Y78740D01*
X313235D01*
X314235Y79740D01*
Y84738D01*
X316234Y78740D02*
X318234D01*
X317234D01*
Y84738D01*
X316234Y83738D01*
X239038Y367597D02*
X238038Y368597D01*
X236039D01*
X235039Y367597D01*
Y363598D01*
X236039Y362598D01*
X238038D01*
X239038Y363598D01*
Y365598D01*
X237039D01*
X241037Y362598D02*
Y368597D01*
X244037D01*
X245036Y367597D01*
Y365598D01*
X244037Y364598D01*
X241037D01*
X247036Y362598D02*
Y368597D01*
X250034D01*
X251034Y367597D01*
Y365598D01*
X250034Y364598D01*
X247036D01*
X249035D02*
X251034Y362598D01*
X257032Y367597D02*
X256033Y368597D01*
X254033D01*
X253034Y367597D01*
Y366597D01*
X254033Y365598D01*
X256033D01*
X257032Y364598D01*
Y363598D01*
X256033Y362598D01*
X254033D01*
X253034Y363598D01*
X218898Y53937D02*
Y59447D01*
X221653D01*
X222571Y58529D01*
Y56692D01*
X221653Y55774D01*
X218898D01*
X220734D02*
X222571Y53937D01*
X227163D02*
X225326D01*
X224408Y54855D01*
Y56692D01*
X225326Y57610D01*
X227163D01*
X228081Y56692D01*
Y55774D01*
X224408D01*
X229918Y53937D02*
X232673D01*
X233591Y54855D01*
X232673Y55774D01*
X230836D01*
X229918Y56692D01*
X230836Y57610D01*
X233591D01*
X238183Y53937D02*
X236346D01*
X235428Y54855D01*
Y56692D01*
X236346Y57610D01*
X238183D01*
X239101Y56692D01*
Y55774D01*
X235428D01*
X241856Y58529D02*
Y57610D01*
X240938D01*
X242774D01*
X241856D01*
Y54855D01*
X242774Y53937D01*
X507087Y387402D02*
Y392912D01*
X509842D01*
X510760Y391993D01*
Y390157D01*
X509842Y389238D01*
X507087D01*
X512597Y387402D02*
Y392912D01*
X515352D01*
X516270Y391993D01*
Y390157D01*
X515352Y389238D01*
X512597D01*
X514433D02*
X516270Y387402D01*
X520862Y392912D02*
X519025D01*
X518107Y391993D01*
Y388320D01*
X519025Y387402D01*
X520862D01*
X521780Y388320D01*
Y391993D01*
X520862Y392912D01*
X527290Y391993D02*
X526372Y392912D01*
X524535D01*
X523617Y391993D01*
Y388320D01*
X524535Y387402D01*
X526372D01*
X527290Y388320D01*
Y390157D01*
X525453D01*
X458268Y392124D02*
Y386614D01*
X460104Y388451D01*
X461941Y386614D01*
Y392124D01*
X463778Y386614D02*
X465614D01*
X464696D01*
Y390287D01*
X463778D01*
X472043Y392124D02*
X468369D01*
Y389369D01*
X470206D01*
X468369D01*
Y386614D01*
X473879D02*
X475716D01*
X474798D01*
Y390287D01*
X473879D01*
X483981Y386614D02*
Y392124D01*
X486736D01*
X487654Y391206D01*
Y389369D01*
X486736Y388451D01*
X483981D01*
X485818D02*
X487654Y386614D01*
X493165Y391206D02*
X492246Y392124D01*
X490410D01*
X489491Y391206D01*
Y390287D01*
X490410Y389369D01*
X492246D01*
X493165Y388451D01*
Y387532D01*
X492246Y386614D01*
X490410D01*
X489491Y387532D01*
X495001Y392124D02*
X498675D01*
X496838D01*
Y386614D01*
X323622Y238976D02*
Y244974D01*
X326621D01*
X327621Y243975D01*
Y241975D01*
X326621Y240976D01*
X323622D01*
X325621D02*
X327621Y238976D01*
X329620D02*
X331620D01*
X330620D01*
Y244974D01*
X329620Y243975D01*
X338617Y244974D02*
X334618D01*
Y241975D01*
X336618Y242975D01*
X337617D01*
X338617Y241975D01*
Y239976D01*
X337617Y238976D01*
X335618D01*
X334618Y239976D01*
X351575Y125591D02*
Y131589D01*
X354574D01*
X355574Y130589D01*
Y128590D01*
X354574Y127590D01*
X351575D01*
X353574D02*
X355574Y125591D01*
X357573D02*
X359572D01*
X358573D01*
Y131589D01*
X357573Y130589D01*
X365570Y125591D02*
Y131589D01*
X362571Y128590D01*
X366570D01*
X242520Y75590D02*
Y81589D01*
X245519D01*
X246518Y80589D01*
Y78590D01*
X245519Y77590D01*
X242520D01*
X244519D02*
X246518Y75590D01*
X248518D02*
X250517D01*
X249517D01*
Y81589D01*
X248518Y80589D01*
X253516D02*
X254516Y81589D01*
X256515D01*
X257515Y80589D01*
Y79589D01*
X256515Y78590D01*
X255516D01*
X256515D01*
X257515Y77590D01*
Y76590D01*
X256515Y75590D01*
X254516D01*
X253516Y76590D01*
X96850Y58268D02*
Y64266D01*
X99849D01*
X100849Y63266D01*
Y61267D01*
X99849Y60267D01*
X96850D01*
X98850D02*
X100849Y58268D01*
X102848D02*
X104848D01*
X103848D01*
Y64266D01*
X102848Y63266D01*
X111846Y58268D02*
X107847D01*
X111846Y62266D01*
Y63266D01*
X110846Y64266D01*
X108846D01*
X107847Y63266D01*
X487402Y312598D02*
Y318597D01*
X490401D01*
X491400Y317597D01*
Y315598D01*
X490401Y314598D01*
X487402D01*
X489401D02*
X491400Y312598D01*
X493400D02*
X495399D01*
X494399D01*
Y318597D01*
X493400Y317597D01*
X498398Y312598D02*
X500397D01*
X499398D01*
Y318597D01*
X498398Y317597D01*
X467717Y312598D02*
Y318597D01*
X470716D01*
X471715Y317597D01*
Y315598D01*
X470716Y314598D01*
X467717D01*
X469716D02*
X471715Y312598D01*
X473715D02*
X475714D01*
X474714D01*
Y318597D01*
X473715Y317597D01*
X478713D02*
X479713Y318597D01*
X481712D01*
X482712Y317597D01*
Y313598D01*
X481712Y312598D01*
X479713D01*
X478713Y313598D01*
Y317597D01*
X453150Y312598D02*
Y318597D01*
X456149D01*
X457148Y317597D01*
Y315598D01*
X456149Y314598D01*
X453150D01*
X455149D02*
X457148Y312598D01*
X459148Y313598D02*
X460147Y312598D01*
X462147D01*
X463146Y313598D01*
Y317597D01*
X462147Y318597D01*
X460147D01*
X459148Y317597D01*
Y316597D01*
X460147Y315598D01*
X463146D01*
X356692Y357988D02*
Y363986D01*
X359691D01*
X360691Y362987D01*
Y360987D01*
X359691Y359987D01*
X356692D01*
X358692D02*
X360691Y357988D01*
X362690Y362987D02*
X363690Y363986D01*
X365689D01*
X366689Y362987D01*
Y361987D01*
X365689Y360987D01*
X366689Y359987D01*
Y358988D01*
X365689Y357988D01*
X363690D01*
X362690Y358988D01*
Y359987D01*
X363690Y360987D01*
X362690Y361987D01*
Y362987D01*
X363690Y360987D02*
X365689D01*
X131102Y58268D02*
Y64266D01*
X134101D01*
X135101Y63266D01*
Y61267D01*
X134101Y60267D01*
X131102D01*
X133102D02*
X135101Y58268D01*
X137100Y64266D02*
X141099D01*
Y63266D01*
X137100Y59267D01*
Y58268D01*
X116485Y57945D02*
Y63943D01*
X119484D01*
X120484Y62944D01*
Y60944D01*
X119484Y59945D01*
X116485D01*
X118485D02*
X120484Y57945D01*
X126482Y63943D02*
X124483Y62944D01*
X122484Y60944D01*
Y58945D01*
X123483Y57945D01*
X125482D01*
X126482Y58945D01*
Y59945D01*
X125482Y60944D01*
X122484D01*
X64567Y171653D02*
Y177652D01*
X67566D01*
X68566Y176652D01*
Y174653D01*
X67566Y173653D01*
X64567D01*
X66566D02*
X68566Y171653D01*
X74564Y177652D02*
X70565D01*
Y174653D01*
X72564Y175652D01*
X73564D01*
X74564Y174653D01*
Y172653D01*
X73564Y171653D01*
X71565D01*
X70565Y172653D01*
X65354Y117717D02*
Y123715D01*
X68353D01*
X69353Y122715D01*
Y120716D01*
X68353Y119716D01*
X65354D01*
X67354D02*
X69353Y117717D01*
X74351D02*
Y123715D01*
X71352Y120716D01*
X75351D01*
X403937Y125591D02*
Y131589D01*
X406936D01*
X407936Y130589D01*
Y128590D01*
X406936Y127590D01*
X403937D01*
X405936D02*
X407936Y125591D01*
X409935Y130589D02*
X410935Y131589D01*
X412934D01*
X413934Y130589D01*
Y129589D01*
X412934Y128590D01*
X411934D01*
X412934D01*
X413934Y127590D01*
Y126590D01*
X412934Y125591D01*
X410935D01*
X409935Y126590D01*
X396850Y268504D02*
Y274502D01*
X399849D01*
X400849Y273502D01*
Y271503D01*
X399849Y270503D01*
X396850D01*
X398850D02*
X400849Y268504D01*
X406847D02*
X402848D01*
X406847Y272503D01*
Y273502D01*
X405848Y274502D01*
X403848D01*
X402848Y273502D01*
X398031Y251181D02*
Y257179D01*
X401030D01*
X402030Y256179D01*
Y254180D01*
X401030Y253181D01*
X398031D01*
X400031D02*
X402030Y251181D01*
X404030D02*
X406029D01*
X405029D01*
Y257179D01*
X404030Y256179D01*
X446792Y88619D02*
Y92617D01*
X445792Y93617D01*
X443793D01*
X442793Y92617D01*
Y88619D01*
X443793Y87619D01*
X445792D01*
X444792Y89618D02*
X446792Y87619D01*
X445792D02*
X446792Y88619D01*
X452790Y87619D02*
X448791D01*
X452790Y91618D01*
Y92617D01*
X451790Y93617D01*
X449791D01*
X448791Y92617D01*
X237857Y330134D02*
Y334132D01*
X236857Y335132D01*
X234858D01*
X233858Y334132D01*
Y330134D01*
X234858Y329134D01*
X236857D01*
X235858Y331133D02*
X237857Y329134D01*
X236857D02*
X237857Y330134D01*
X239856Y329134D02*
X241856D01*
X240856D01*
Y335132D01*
X239856Y334132D01*
X45667Y184646D02*
X40157D01*
X42913D01*
Y180972D01*
X45667D01*
X40157D01*
X45667Y179136D02*
X41076D01*
X40157Y178217D01*
Y176381D01*
X41076Y175462D01*
X45667D01*
X40157Y173626D02*
X45667D01*
X43831Y171789D01*
X45667Y169952D01*
X40157D01*
Y162606D02*
X45667D01*
Y159851D01*
X44749Y158932D01*
X42913D01*
X41994Y159851D01*
Y162606D01*
Y160769D02*
X40157Y158932D01*
Y157096D02*
X45667D01*
X40157Y153422D01*
X45667D01*
Y146075D02*
X40157D01*
X41994Y144239D01*
X40157Y142402D01*
X45667D01*
Y140565D02*
X40157D01*
Y137810D01*
X41076Y136892D01*
X44749D01*
X45667Y137810D01*
Y140565D01*
Y129545D02*
X40157D01*
Y125872D01*
X45667Y124035D02*
X40157D01*
Y121280D01*
X41076Y120362D01*
X44749D01*
X45667Y121280D01*
Y124035D01*
X40157Y118525D02*
X45667D01*
Y115770D01*
X44749Y114852D01*
X42913D01*
X41994Y115770D01*
Y118525D01*
Y116689D02*
X40157Y114852D01*
X45667Y107505D02*
Y103832D01*
Y105669D01*
X40157D01*
X45667Y98322D02*
Y101995D01*
X40157D01*
Y98322D01*
X42913Y101995D02*
Y100159D01*
X40157Y96485D02*
X45667D01*
X43831Y94648D01*
X45667Y92812D01*
X40157D01*
Y90975D02*
X45667D01*
Y88220D01*
X44749Y87302D01*
X42913D01*
X41994Y88220D01*
Y90975D01*
X45667Y76282D02*
Y79955D01*
X42913D01*
Y78118D01*
Y79955D01*
X40157D01*
X45667Y74445D02*
X40157D01*
Y70772D01*
X485734Y169141D02*
Y167141D01*
X486734Y166142D01*
X490733D01*
X491732Y167141D01*
Y169141D01*
X490733Y170140D01*
X486734D01*
X485734Y169141D01*
Y172140D02*
X490733D01*
X491732Y173140D01*
Y175139D01*
X490733Y176138D01*
X485734D01*
Y178138D02*
Y182137D01*
Y180137D01*
X491732D01*
Y190134D02*
Y192133D01*
Y191134D01*
X485734D01*
X486734Y190134D01*
X491732Y199131D02*
Y195132D01*
X487734Y199131D01*
X486734D01*
X485734Y198131D01*
Y196132D01*
X486734Y195132D01*
X485734Y201130D02*
X489733D01*
X491732Y203130D01*
X489733Y205129D01*
X485734D01*
X44749Y62205D02*
X45667Y61286D01*
Y59450D01*
X44749Y58531D01*
X43831D01*
X42913Y59450D01*
Y60368D01*
Y59450D01*
X41994Y58531D01*
X41076D01*
X40157Y59450D01*
Y61286D01*
X41076Y62205D01*
X40157Y56695D02*
X41076D01*
Y55776D01*
X40157D01*
Y56695D01*
X44749Y52103D02*
X45667Y51185D01*
Y49348D01*
X44749Y48430D01*
X43831D01*
X42913Y49348D01*
Y50266D01*
Y49348D01*
X41994Y48430D01*
X41076D01*
X40157Y49348D01*
Y51185D01*
X41076Y52103D01*
X45667Y46593D02*
X41994D01*
X40157Y44756D01*
X41994Y42920D01*
X45667D01*
X44749Y31900D02*
X45667Y32818D01*
Y34655D01*
X44749Y35573D01*
X41076D01*
X40157Y34655D01*
Y32818D01*
X41076Y31900D01*
X42913D01*
Y33736D01*
X40157Y30063D02*
X45667D01*
X40157Y26390D01*
X45667D01*
Y24553D02*
X40157D01*
Y21798D01*
X41076Y20879D01*
X44749D01*
X45667Y21798D01*
Y24553D01*
Y9859D02*
Y13533D01*
X42913D01*
X43831Y11696D01*
Y10778D01*
X42913Y9859D01*
X41076D01*
X40157Y10778D01*
Y12614D01*
X41076Y13533D01*
X45667Y8023D02*
X41994D01*
X40157Y6186D01*
X41994Y4349D01*
X45667D01*
X475984Y151667D02*
Y145669D01*
Y147669D01*
X479983Y151667D01*
X476984Y148668D01*
X479983Y145669D01*
X481982D02*
X483982D01*
X482982D01*
Y151667D01*
X481982Y150668D01*
X304724Y362297D02*
X306724D01*
X305724D01*
Y356299D01*
X304724D01*
X306724D01*
X313721Y361298D02*
X312722Y362297D01*
X310722D01*
X309723Y361298D01*
Y360298D01*
X310722Y359298D01*
X312722D01*
X313721Y358299D01*
Y357299D01*
X312722Y356299D01*
X310722D01*
X309723Y357299D01*
X315721Y356299D02*
Y362297D01*
X318720D01*
X319720Y361298D01*
Y359298D01*
X318720Y358299D01*
X315721D01*
X511417Y229134D02*
X505419D01*
Y232133D01*
X506419Y233133D01*
X508418D01*
X509418Y232133D01*
Y229134D01*
X511417Y235132D02*
X505419D01*
Y238131D01*
X506419Y239131D01*
X508418D01*
X509418Y238131D01*
Y235132D01*
Y237131D02*
X511417Y239131D01*
X505419Y244129D02*
Y242130D01*
X506419Y241130D01*
X510418D01*
X511417Y242130D01*
Y244129D01*
X510418Y245129D01*
X506419D01*
X505419Y244129D01*
X506419Y251127D02*
X505419Y250127D01*
Y248128D01*
X506419Y247128D01*
X510418D01*
X511417Y248128D01*
Y250127D01*
X510418Y251127D01*
X508418D01*
Y249127D01*
X511417Y253126D02*
X507419Y257125D01*
X505419Y259124D02*
X511417D01*
Y262123D01*
X510418Y263123D01*
X506419D01*
X505419Y262123D01*
Y259124D01*
Y269121D02*
Y265122D01*
X511417D01*
Y269121D01*
X508418Y265122D02*
Y267122D01*
X505419Y271120D02*
X511417D01*
Y274119D01*
X510418Y275119D01*
X509418D01*
X508418Y274119D01*
Y271120D01*
Y274119D01*
X507419Y275119D01*
X506419D01*
X505419Y274119D01*
Y271120D01*
Y277118D02*
X510418D01*
X511417Y278118D01*
Y280117D01*
X510418Y281117D01*
X505419D01*
X506419Y287115D02*
X505419Y286115D01*
Y284116D01*
X506419Y283116D01*
X510418D01*
X511417Y284116D01*
Y286115D01*
X510418Y287115D01*
X508418D01*
Y285116D01*
X422441Y240644D02*
Y234646D01*
X425440D01*
X426440Y235645D01*
Y239644D01*
X425440Y240644D01*
X422441D01*
X428439D02*
X430438D01*
X429439D01*
Y234646D01*
X428439D01*
X430438D01*
X433437D02*
Y240644D01*
X436436D01*
X437436Y239644D01*
Y237645D01*
X436436Y236645D01*
X433437D01*
X449432Y239644D02*
X448432Y240644D01*
X446433D01*
X445434Y239644D01*
Y238644D01*
X446433Y237645D01*
X448432D01*
X449432Y236645D01*
Y235645D01*
X448432Y234646D01*
X446433D01*
X445434Y235645D01*
X451432Y240644D02*
Y234646D01*
X453431Y236645D01*
X455430Y234646D01*
Y240644D01*
X390158Y131589D02*
Y125591D01*
X393157D01*
X394156Y126590D01*
Y130589D01*
X393157Y131589D01*
X390158D01*
X396156Y130589D02*
X397155Y131589D01*
X399155D01*
X400154Y130589D01*
Y129589D01*
X399155Y128590D01*
X398155D01*
X399155D01*
X400154Y127590D01*
Y126590D01*
X399155Y125591D01*
X397155D01*
X396156Y126590D01*
X370472Y131589D02*
Y125591D01*
X373471D01*
X374471Y126590D01*
Y130589D01*
X373471Y131589D01*
X370472D01*
X380469Y125591D02*
X376470D01*
X380469Y129589D01*
Y130589D01*
X379469Y131589D01*
X377470D01*
X376470Y130589D01*
X468693Y125236D02*
Y119238D01*
X471692D01*
X472692Y120238D01*
Y124236D01*
X471692Y125236D01*
X468693D01*
X474691Y119238D02*
X476690D01*
X475691D01*
Y125236D01*
X474691Y124236D01*
X176833Y170317D02*
X175834Y171317D01*
X173834D01*
X172835Y170317D01*
Y166319D01*
X173834Y165319D01*
X175834D01*
X176833Y166319D01*
X178833Y171317D02*
X182831D01*
Y170317D01*
X178833Y166319D01*
Y165319D01*
X429196Y70353D02*
X428196Y71352D01*
X426196D01*
X425197Y70353D01*
Y66354D01*
X426196Y65354D01*
X428196D01*
X429196Y66354D01*
X435194Y71352D02*
X433194Y70353D01*
X431195Y68353D01*
Y66354D01*
X432195Y65354D01*
X434194D01*
X435194Y66354D01*
Y67354D01*
X434194Y68353D01*
X431195D01*
X429983Y54605D02*
X428983Y55604D01*
X426984D01*
X425984Y54605D01*
Y50606D01*
X426984Y49606D01*
X428983D01*
X429983Y50606D01*
X435981Y55604D02*
X431982D01*
Y52605D01*
X433982Y53605D01*
X434981D01*
X435981Y52605D01*
Y50606D01*
X434981Y49606D01*
X432982D01*
X431982Y50606D01*
X256755Y45550D02*
X255755Y46549D01*
X253756D01*
X252756Y45550D01*
Y41551D01*
X253756Y40551D01*
X255755D01*
X256755Y41551D01*
X261753Y40551D02*
Y46549D01*
X258754Y43550D01*
X262753D01*
X256755Y25864D02*
X255755Y26864D01*
X253756D01*
X252756Y25864D01*
Y21866D01*
X253756Y20866D01*
X255755D01*
X256755Y21866D01*
X258754Y25864D02*
X259754Y26864D01*
X261753D01*
X262753Y25864D01*
Y24865D01*
X261753Y23865D01*
X260753D01*
X261753D01*
X262753Y22865D01*
Y21866D01*
X261753Y20866D01*
X259754D01*
X258754Y21866D01*
X338251Y194369D02*
X337251Y195368D01*
X335252D01*
X334252Y194369D01*
Y190370D01*
X335252Y189370D01*
X337251D01*
X338251Y190370D01*
X344249Y189370D02*
X340250D01*
X344249Y193369D01*
Y194369D01*
X343249Y195368D01*
X341250D01*
X340250Y194369D01*
X352818D02*
X351818Y195368D01*
X349819D01*
X348819Y194369D01*
Y190370D01*
X349819Y189370D01*
X351818D01*
X352818Y190370D01*
X354817Y189370D02*
X356816D01*
X355817D01*
Y195368D01*
X354817Y194369D01*
X166535Y68896D02*
Y63386D01*
X169290D01*
X170209Y64304D01*
Y65223D01*
X169290Y66141D01*
X166535D01*
X169290D01*
X170209Y67059D01*
Y67977D01*
X169290Y68896D01*
X166535D01*
X172046Y63386D02*
Y68896D01*
X173882Y67059D01*
X175719Y68896D01*
Y63386D01*
X177556D02*
Y68896D01*
X180310D01*
X181229Y67977D01*
Y66141D01*
X180310Y65223D01*
X177556D01*
X135827Y378740D02*
Y382739D01*
X137826Y384738D01*
X139825Y382739D01*
Y378740D01*
Y381739D01*
X135827D01*
X141825Y378740D02*
Y382739D01*
X144824D01*
X145824Y381739D01*
Y378740D01*
X148823Y383738D02*
Y382739D01*
X147823D01*
X149822D01*
X148823D01*
Y379740D01*
X149822Y378740D01*
X155820D02*
X153821D01*
X152821Y379740D01*
Y381739D01*
X153821Y382739D01*
X155820D01*
X156820Y381739D01*
Y380739D01*
X152821D01*
X158819Y378740D02*
Y382739D01*
X161818D01*
X162818Y381739D01*
Y378740D01*
X164817D02*
Y382739D01*
X167816D01*
X168816Y381739D01*
Y378740D01*
X171815Y382739D02*
X173814D01*
X174814Y381739D01*
Y378740D01*
X171815D01*
X170816Y379740D01*
X171815Y380739D01*
X174814D01*
X407480Y165447D02*
Y159449D01*
Y165447D02*
X411479Y159449D01*
Y165447D02*
Y159449D01*
X413707Y165447D02*
X413993Y165162D01*
X414279Y165447D01*
X413993Y165733D01*
X413707Y165447D01*
X413993Y163448D02*
Y159449D01*
X418764Y162591D02*
X418192Y163162D01*
X417621Y163448D01*
X416764D01*
X416193Y163162D01*
X415621Y162591D01*
X415336Y161734D01*
Y161163D01*
X415621Y160306D01*
X416193Y159734D01*
X416764Y159449D01*
X417621D01*
X418192Y159734D01*
X418764Y160306D01*
X420049Y165447D02*
Y159449D01*
X422906Y163448D02*
X420049Y160591D01*
X421192Y161734D02*
X423191Y159449D01*
X433418D02*
X431132Y165447D01*
X428847Y159449D01*
X429704Y161448D02*
X432561D01*
X435103Y160020D02*
X434817Y159734D01*
X435103Y159449D01*
X435389Y159734D01*
X435103Y160020D01*
X441416Y165447D02*
Y159449D01*
X444844D01*
X448929Y163448D02*
Y159449D01*
Y162591D02*
X448357Y163162D01*
X447786Y163448D01*
X446929D01*
X446358Y163162D01*
X445786Y162591D01*
X445501Y161734D01*
Y161163D01*
X445786Y160306D01*
X446358Y159734D01*
X446929Y159449D01*
X447786D01*
X448357Y159734D01*
X448929Y160306D01*
X451385Y165447D02*
Y160591D01*
X451671Y159734D01*
X452242Y159449D01*
X452813D01*
X450528Y163448D02*
X452528D01*
X453670D02*
Y159449D01*
Y162305D02*
X454527Y163162D01*
X455099Y163448D01*
X455956D01*
X456527Y163162D01*
X456813Y162305D01*
Y159449D01*
Y162305D02*
X457670Y163162D01*
X458241Y163448D01*
X459098D01*
X459669Y163162D01*
X459955Y162305D01*
Y159449D01*
X463268Y163448D02*
X462697Y163162D01*
X462126Y162591D01*
X461840Y161734D01*
Y161163D01*
X462126Y160306D01*
X462697Y159734D01*
X463268Y159449D01*
X464125D01*
X464697Y159734D01*
X465268Y160306D01*
X465554Y161163D01*
Y161734D01*
X465268Y162591D01*
X464697Y163162D01*
X464125Y163448D01*
X463268D01*
X470010Y162591D02*
X469724Y163162D01*
X468867Y163448D01*
X468010D01*
X467153Y163162D01*
X466868Y162591D01*
X467153Y162020D01*
X467725Y161734D01*
X469153Y161448D01*
X469724Y161163D01*
X470010Y160591D01*
Y160306D01*
X469724Y159734D01*
X468867Y159449D01*
X468010D01*
X467153Y159734D01*
X466868Y160306D01*
D60*
X385827Y269291D02*
X391339D01*
X374410D02*
X380709D01*
X385827Y259055D02*
X391339D01*
X374410D02*
X380709D01*
X374410D02*
Y269291D01*
X391339Y259055D02*
X392126D01*
Y269291D01*
X391339D02*
X392126D01*
X385827Y255118D02*
X391338D01*
X374409D02*
X380709D01*
X385827Y244882D02*
X391338D01*
X374409D02*
X380709D01*
X374409D02*
Y255118D01*
X391338Y244882D02*
X392126D01*
Y255118D01*
X391338D02*
X392126D01*
X261417Y55905D02*
Y61417D01*
Y66535D02*
Y72834D01*
X251181Y55905D02*
Y61417D01*
Y66535D02*
Y72834D01*
X261417D01*
X251181Y55118D02*
Y55905D01*
Y55118D02*
X261417D01*
Y55905D01*
X266929Y66535D02*
Y72047D01*
Y55118D02*
Y61417D01*
X277166Y66535D02*
Y72047D01*
Y55118D02*
Y61417D01*
X266929Y55118D02*
X277166D01*
Y72047D02*
Y72834D01*
X266929D02*
X277166D01*
X266929Y72047D02*
Y72834D01*
X347244Y235039D02*
X352756D01*
X335826D02*
X342126D01*
X347244Y224803D02*
X352756D01*
X335826D02*
X342126D01*
X335826D02*
Y235039D01*
X352756Y224803D02*
X353543D01*
Y235039D01*
X352756D02*
X353543D01*
X411811Y106299D02*
Y111811D01*
Y116929D02*
Y123228D01*
X401575Y106299D02*
Y111811D01*
Y116929D02*
Y123228D01*
X411811D01*
X401575Y105512D02*
Y106299D01*
Y105512D02*
X411811D01*
Y106299D01*
X366535Y106299D02*
Y111811D01*
Y116929D02*
Y123228D01*
X356299Y106299D02*
Y111811D01*
Y116929D02*
Y123228D01*
X366535D01*
X356299Y105512D02*
Y106299D01*
Y105512D02*
X366535D01*
Y106299D01*
X100787Y48425D02*
Y53937D01*
Y37008D02*
Y43307D01*
X111024Y48425D02*
Y53937D01*
Y37008D02*
Y43307D01*
X100787Y37008D02*
X111024D01*
Y53937D02*
Y54725D01*
X100787D02*
X111024D01*
X100787Y53937D02*
Y54725D01*
X484252Y302362D02*
Y307874D01*
Y290945D02*
Y297244D01*
X494488Y302362D02*
Y307874D01*
Y290945D02*
Y297244D01*
X484252Y290945D02*
X494488D01*
Y307874D02*
Y308662D01*
X484252D02*
X494488D01*
X484252Y307874D02*
Y308662D01*
X470079Y302362D02*
Y307874D01*
Y290945D02*
Y297244D01*
X480315Y302362D02*
Y307874D01*
Y290945D02*
Y297244D01*
X470079Y290945D02*
X480315D01*
Y307874D02*
Y308662D01*
X470079D02*
X480315D01*
X470079Y307874D02*
Y308662D01*
X456299Y302362D02*
Y307874D01*
Y290945D02*
Y297244D01*
X466536Y302362D02*
Y307874D01*
Y290945D02*
Y297244D01*
X456299Y290945D02*
X466536D01*
Y307874D02*
Y308662D01*
X456299D02*
X466536D01*
X456299Y307874D02*
Y308662D01*
X355906Y348425D02*
Y353937D01*
Y337008D02*
Y343307D01*
X366142Y348425D02*
Y353937D01*
Y337008D02*
Y343307D01*
X355906Y337008D02*
X366142D01*
Y353937D02*
Y354725D01*
X355906D02*
X366142D01*
X355906Y353937D02*
Y354725D01*
X125984Y37795D02*
Y43307D01*
Y48425D02*
Y54725D01*
X115748Y37795D02*
Y43307D01*
Y48425D02*
Y54725D01*
X125984D01*
X115748Y37008D02*
Y37795D01*
Y37008D02*
X125984D01*
Y37795D01*
X292126Y55906D02*
Y61418D01*
Y66536D02*
Y72835D01*
X281890Y55906D02*
Y61418D01*
Y66536D02*
Y72835D01*
X292126D01*
X281890Y55118D02*
Y55906D01*
Y55118D02*
X292126D01*
Y55906D01*
X167717Y4331D02*
X209842D01*
X167717Y57087D02*
X209842D01*
X167717Y4331D02*
Y57087D01*
X209842Y4331D02*
Y57087D01*
X140157Y37795D02*
Y43307D01*
Y48425D02*
Y54725D01*
X129921Y37795D02*
Y43307D01*
Y48425D02*
Y54725D01*
X140157D01*
X129921Y37008D02*
Y37795D01*
Y37008D02*
X140157D01*
Y37795D01*
X123622Y144882D02*
Y176378D01*
Y85039D02*
Y116535D01*
D61*
X378780Y214567D02*
X382716D01*
X388779D02*
X392717D01*
X398780D02*
X402716D01*
X408779D02*
X412716D01*
D62*
X373779Y185827D02*
Y227953D01*
Y185827D02*
X457717D01*
Y227953D01*
X373779D02*
X457717D01*
X373779Y187795D02*
Y225590D01*
X457717Y187795D02*
Y225590D01*
X338189Y49744D02*
Y75197D01*
X386093Y47510D02*
Y74410D01*
X339606Y3307D02*
X340945Y1969D01*
X384645D01*
X386093Y3416D01*
X338189Y4724D02*
Y49744D01*
X386093Y3416D02*
Y47510D01*
X338189Y75197D02*
X384488D01*
X385276Y74410D02*
X386093D01*
X338189Y4724D02*
X339606Y3307D01*
X384488Y75197D02*
X385276Y74410D01*
D63*
X292309Y380315D02*
X288976D01*
X292309Y383647D01*
Y384480D01*
X291476Y385313D01*
X289809D01*
X288976Y384480D01*
X290158Y368504D02*
X291824D01*
X290990D01*
Y373502D01*
X290158Y372669D01*
D64*
X473622Y100591D02*
D03*
M02*
