M48
;Layer_Color=9474304
;FILE_FORMAT=2:5
INCH,TZ
;TYPE=PLATED
T1F00S00C0.01968
T2F00S00C0.02756
T3F00S00C0.03150
T4F00S00C0.03543
T5F00S00C0.03937
T6F00S00C0.04331
T8F00S00C0.04724
T9F00S00C0.13780
%
T01
X117323Y20079
X128347Y27165
X380315Y172441
X362992Y183071
X363393Y159919
X313779Y156693
X313593Y149606
X305118Y165354
X305118Y179419
X305906Y120866
Y113386
X286221Y127953
X276772Y94488
X282283Y86614
X256693
X264173Y100394
X235039Y86614
X295893Y58662
X362598Y70472
X218504Y105905
X217717Y131496
X217593Y152119
X218110Y171260
X217717Y183465
X134993Y105919
X278671Y221693
X281496Y255906
X290037Y256119
X322047Y281496
X361193Y267919
X349606Y255118
X458661Y346063
X458268Y353937
T02
X322441Y171851
Y184055
T03
X268504Y16535
Y35433
X288189
Y16535
X396850Y48425
X416536Y48425
Y68110
X396850
T04
X451575Y60630
Y70866
Y81102
X496417Y75590
X526417
Y105590
Y125591
Y145590
X496417
Y125591
Y105590
X450748Y191693
X440748
X430748
X420748
X410748
X400748
X390748
X380748
Y221693
X390748
X400748
X410748
X420748
X430748
X440748
X450748
T05
X294094Y311417
T06
X173937Y51181
X183937
X193937
X226772Y291575
Y301575
Y311575
X527559Y283465
Y273464
Y263464
Y253465
Y243464
Y233465
X320787Y372441
X310787
X300787
Y382441
X310787
X320787
X267559Y382677
X257559
X247559
X237559
X227559
T08
X18504Y12795
Y32480
X18701Y52165
X432087Y18701
X451772Y18504
X471457
X501378Y18504
X521063
X473622Y70748
Y111929
X516929Y175787
Y195473
X118504Y171260
Y150000
Y111417
Y90158
X78740Y100787
Y160630
X18307Y156299
Y175984
Y136614
Y116929
Y97244
Y77559
T09
X488189Y55118
X153543
X191339Y206299
X16142
X319685Y311417
X191732Y383465
X16142
M30
